<svg width="435" height="100" viewBox="0 0 435 100" fill="none" xmlns="http://www.w3.org/2000/svg">
<path d="M99.9859 48.7115C99.9859 48.5514 99.9764 48.3912 99.9717 48.231C99.6184 38.1731 96.2829 28.8595 90.8226 21.157C90.799 21.1193 90.7707 21.0864 90.7472 21.0487C81.6734 8.31959 66.7907 0 50 0C32.2199 0 16.5787 9.32774 7.70753 23.3523C2.82672 31.0689 0 40.2082 0 50.0024V50.1672C0.0141336 54.6285 0.617168 58.9579 1.73372 63.08C1.7667 63.1931 1.79497 63.3109 1.82795 63.4239C4.74418 73.8682 10.9724 82.9462 19.3065 89.4427C27.7867 96.0569 38.4434 100 50 100C62.4046 100 73.768 95.4586 82.5167 87.954C82.5544 87.921 82.5968 87.8881 82.6345 87.8504C92.0993 79.6815 98.4736 68.0266 99.755 54.8971C99.7833 54.6238 99.8068 54.3459 99.8304 54.0679C99.8445 53.9125 99.8587 53.7617 99.8681 53.6063C99.8822 53.4272 99.8916 53.2482 99.9058 53.0739C99.9152 52.9043 99.9246 52.7394 99.934 52.5698C99.9435 52.405 99.9482 52.2401 99.9576 52.0705C99.9623 51.9339 99.967 51.7972 99.9717 51.6559C99.9812 51.4204 99.9906 51.1848 99.9906 50.9445C99.9953 50.888 99.9953 50.8362 99.9953 50.7797C99.9953 50.6807 100 50.5818 100 50.4782V50.0024C100 49.5689 99.9953 49.1402 99.9859 48.7115ZM85.5178 81.222C79.0681 88.5476 70.3948 93.8663 60.5672 96.1181C60.8263 95.0064 61.142 93.8993 61.288 92.7592C61.5283 90.7947 61.4624 88.7973 61.1279 86.8469C60.6709 84.1664 59.6627 81.6413 58.3388 79.2764C55.2954 73.8305 51.1778 70.8579 51.8468 63.8574C51.9128 63.1507 52.1342 62.4582 52.3132 61.7704C52.5064 61.0213 52.7137 60.277 52.9257 59.5327C53.2837 58.3031 53.4062 56.9322 53.4863 55.6508C53.5994 53.9313 53.5287 52.1647 53.2225 50.3557C53.1989 50.5959 53.1753 50.8409 53.1518 51.0812C52.9775 52.8148 52.6948 54.4118 52.2425 55.9806C51.795 57.5446 51.2626 59.0286 50.702 60.4796C50.5748 60.8188 50.4381 61.158 50.3062 61.4971C49.8068 62.7644 49.2886 63.9893 49.0059 65.3272C48.7233 66.6604 48.6196 68.0407 48.7468 69.4022C48.9918 72.0073 50.1696 74.4194 51.3851 76.6995C52.5864 78.9513 53.7595 81.2079 54.438 83.6764C55.6911 88.2367 54.7442 92.8205 52.4592 96.8295C52.3744 96.9708 52.2896 97.1122 52.2048 97.2582C51.4746 97.2912 50.7397 97.31 50 97.31C48.8787 97.31 47.7622 97.2676 46.6598 97.1923C47.1356 96.2736 47.7904 95.4492 48.2521 94.5305C52.6995 85.6409 48.4641 81.5989 45.6657 73.8211C43.0039 66.406 45.7835 63.2543 49.0248 57.2102C50.9799 53.5686 51.8798 49.7056 50.6596 45.6259C50.6172 45.8661 50.5701 46.1064 50.5277 46.3513C50.2214 48.085 49.722 49.682 48.9258 51.2508C48.1249 52.8148 47.1874 54.2988 46.1933 55.7498C43.9555 59.0098 41.4397 62.1944 40.4598 66.1092C37.8545 76.5487 47.4607 82.6023 40.62 93.2162C40.3138 93.6873 38.9475 95.6423 38.613 95.8685C38.5895 95.8826 38.5659 95.8967 38.5424 95.9062C29.3602 93.6119 21.2287 88.6277 15.0429 81.8439C15.024 81.8297 15.0099 81.8109 14.9958 81.7921C13.7426 80.4117 12.5695 78.9608 11.4859 77.4438C13.1254 76.1012 32.3094 60.2629 49.7032 39.5581C49.722 39.5346 49.7456 39.511 49.7644 39.4827H49.7691C49.8068 39.4498 49.8587 39.4309 49.9105 39.4309C49.967 39.4309 50.0141 39.4498 50.0565 39.4827C50.0801 39.511 50.0989 39.5346 50.1225 39.5581C68.124 60.9884 88.0477 77.2083 88.4481 77.5333C87.5342 78.8147 86.5542 80.0443 85.5178 81.222ZM89.1548 76.5299C89.1265 76.5676 89.103 76.61 89.0747 76.6477C76.5052 65.6051 49.9105 29.6556 49.9105 29.6556C49.9105 29.6556 23.4665 65.4026 10.8593 76.5487C5.70527 68.9735 2.6901 59.8295 2.6901 50.0024C2.6901 23.9129 23.9141 2.69468 50 2.69468C76.0859 2.69468 97.3099 23.9129 97.3099 50.0024C97.3099 59.8247 94.2994 68.9593 89.1548 76.5299Z" fill="white"/>
<path d="M52.1674 17.1103L57.199 23.4607L50.8436 18.4293L49.9107 26.4804L48.9779 18.4293L42.6225 23.4607L47.6541 17.1103L39.6026 16.1728L47.6541 15.24L42.6225 8.8896L48.9779 13.9162L49.9107 5.86986L50.8436 13.9209L57.1943 8.88489L52.1627 15.24L60.2141 16.1728L52.1674 17.1103Z" fill="white"/>
<path d="M158.121 52.9631V54.4308H143.143V52.9631C148.388 52.385 148.199 52.2626 146.729 47.526L144.491 40.5545H129.312L126.818 47.526C125.281 51.9402 125.726 52.385 131.94 52.9631V54.4308H119V52.9631C121.817 52.385 122.074 52.4517 123.8 47.8485L134.747 19.0841C135.96 15.6928 135.515 15.0591 132.631 14.4809V13.0132H141.918L153.377 47.8485C154.847 52.3182 155.17 52.385 158.11 52.9631H158.121ZM143.912 38.7755L137.252 17.9944L129.891 38.8311L143.912 38.7644V38.7755Z" fill="white"/>
<path d="M161.897 53.0966C164.332 52.7111 165.549 51.0062 165.549 47.9819V19.0841C165.549 15.8003 164.398 13.5617 162.097 12.3683V11.6011C164.213 11.0896 169.135 10.0667 171.385 10C171.251 12.1793 171.128 14.214 171.128 16.649V47.9708C171.128 50.9951 172.346 52.7 174.781 53.0854V54.4308H161.908V53.0854L161.897 53.0966Z" fill="white"/>
<path d="M178.033 53.0966C180.468 52.7111 181.686 51.0062 181.686 47.9819V35.0062C181.686 31.7225 180.512 29.4839 178.166 28.2905V27.59C180.282 27.0118 185.205 25.9889 187.454 25.9333C187.332 28.1126 187.265 30.214 187.265 32.5823V47.993C187.265 51.0173 188.482 52.7222 190.917 53.1077V54.4531H178.044V53.1077L178.033 53.0966ZM180.661 17.5497C180.661 15.5038 182.198 13.9027 184.247 13.9027C186.162 13.9027 187.643 15.5038 187.643 17.5497C187.643 19.4065 186.173 21.0632 184.247 21.0632C182.198 21.0632 180.661 19.3954 180.661 17.5497Z" fill="white"/>
<path d="M215.94 29.3134L215.684 29.5691C217.032 30.7144 218.112 32.6379 218.112 35.3843C218.112 42.7338 212.032 45.8693 206.653 45.8693C204.927 45.8693 203.201 45.6136 201.597 45.0354C199.158 45.4246 198.646 46.6365 198.646 48.2932C198.646 50.4058 200.116 51.4287 204.025 51.4287H210.751C217.856 51.4287 221.252 53.9193 221.252 59.4788C221.252 66.1945 215.684 69.4523 207.354 69.4523C198.457 69.4523 193.846 66.7616 193.846 62.2251C193.846 59.0229 196.274 56.9214 199.481 56.1542V55.7095C196.597 55.3203 194.425 53.0854 194.425 50.2057C194.425 46.6921 196.92 44.7685 200.06 44.3238C197.365 42.9117 195.383 40.3655 195.383 36.2738C195.383 28.7241 201.597 25.6664 206.909 25.6664C210.684 25.6664 211.263 26.5559 214.972 26.5559C217.277 26.5559 218.936 26.2335 221.564 25.9222L221.887 26.1112C221.887 26.6226 221.698 27.3231 221.508 27.8346C221.319 28.346 220.74 29.2356 220.417 29.3023H215.94V29.3134ZM198.59 61.6025C198.59 64.5378 201.085 67.3509 207.555 67.2953C213.769 67.2953 216.776 64.9937 216.776 60.902C216.776 57.8999 214.47 56.1765 209.348 56.1765H201.341C199.481 57.2661 198.59 58.9895 198.59 61.6136V61.6025ZM212.232 36.2849C212.232 31.1035 210.829 27.4677 206.664 27.4677C202.499 27.4677 201.285 31.0479 201.285 35.3287C201.285 40.4433 202.822 44.0903 206.92 44.0903C211.018 44.0903 212.232 40.51 212.232 36.296V36.2849Z" fill="white"/>
<path d="M254.104 53.0966V54.4419H241.108V53.0966C243.625 52.7556 244.883 51.0729 244.883 48.0486V37.2411C244.883 31.8707 243.09 29.3134 239.382 29.3134C237.467 29.3134 235.418 30.3363 233.112 32.1264V47.9819C233.112 51.0062 234.33 52.7111 236.765 53.0966V54.4419H223.892V53.0966C227.477 52.5184 227.544 52.5184 227.544 47.9819V35.0062C227.544 31.7225 226.371 29.4839 224.025 28.2905V27.59C226.141 27.0118 231.063 25.9889 233.112 25.9333L232.667 30.6032L232.923 30.7922C234.716 28.813 238.369 25.6775 242.589 25.6775C247.834 25.6775 250.462 28.1682 250.462 35.0062V47.9819C250.462 51.0062 251.68 52.7111 254.115 53.0966H254.104Z" fill="white"/>
<path d="M280.163 47.7929C278.949 51.0507 275.942 55.2758 269.851 55.2758C262.556 55.2758 257.623 50.6727 257.623 41.3996C257.623 30.5365 263.96 25.6775 270.04 25.6775C276.766 25.6775 280.096 30.025 280.096 36.9298L279.45 37.5747H262.991C262.924 38.0194 262.924 38.4642 262.924 38.9756C262.924 46.3919 266.131 50.7394 271.699 50.7394C275.73 50.7394 278.036 48.5712 279.316 47.0368L280.152 47.804L280.163 47.7929ZM263.135 35.9625H274.851C274.717 30.9145 273.058 27.5233 269.606 27.5233C266.153 27.5233 263.715 30.7144 263.135 35.9625Z" fill="white"/>
<path d="M312.435 53.6636C310.832 54.0416 305.197 55.009 303.404 55.009L303.849 50.3391L303.526 50.0833C301.733 52.1292 298.337 55.2647 293.983 55.2647C288.225 55.2647 283.615 51.2397 283.615 41.5219C283.615 30.3363 290.909 25.5441 297.446 25.5441C299.885 25.5441 301.867 26.0556 303.404 26.7561V19.0841C303.404 15.8003 302.231 13.5617 299.885 12.3683V11.6011C302.001 11.0896 306.923 10.0667 309.172 10C309.05 12.1793 308.983 14.214 308.983 16.649V46.1806C308.983 49.4644 310.134 51.7215 312.435 52.952V53.6636ZM303.415 48.8158V33.9166C303.025 29.9583 300.598 27.4009 297.145 27.4009C292.468 27.4009 289.784 32.1932 289.784 40.4433C289.784 48.6935 293.047 51.6289 296.956 51.6289C299.005 51.6289 301.121 50.6059 303.426 48.8158H303.415Z" fill="white"/>
<path d="M370.51 13.0132V14.4809C367.949 15.0591 367.626 15.3704 366.089 19.5955L353.606 54.9423H352.136L343.817 27.7123L332.803 54.9423H331.333L319.874 19.5955C318.594 15.4371 318.081 15.0591 315.141 14.4809V13.0132H330.186V14.4809C324.997 15.0591 324.808 15.5038 326.222 19.918L334.351 45.6136L342.737 24.2654L341.334 19.6623C340.053 15.4482 339.541 15.0591 336.601 14.4809V13.0132H351.579V14.4809C346.389 15.0591 346.267 15.5038 347.548 19.918L354.975 44.9131L363.038 19.918C364.441 15.4371 364.196 15.0591 357.726 14.4809V13.0132H370.533H370.51Z" fill="white"/>
<path d="M390.299 47.7929C389.086 51.0507 386.079 55.2758 379.987 55.2758C372.693 55.2758 367.76 50.6727 367.76 41.3996C367.76 30.5365 374.096 25.6775 380.177 25.6775C386.903 25.6775 390.233 30.025 390.233 36.9298L389.598 37.5747H373.139C373.072 38.0194 373.072 38.4642 373.072 38.9756C373.072 46.3919 376.279 50.7394 381.847 50.7394C385.878 50.7394 388.184 48.5712 389.464 47.0368L390.299 47.804V47.7929ZM373.272 35.9625H384.987C384.854 30.9145 383.195 27.5233 379.742 27.5233C376.29 27.5233 373.851 30.7144 373.272 35.9625Z" fill="white"/>
<path d="M405.088 25.6664C409.12 25.6664 411.87 26.6226 412.449 27.0118C412.705 28.5462 412.828 31.9374 412.583 34.4281H411.369C410.411 32.0597 409.32 27.5233 404.197 27.5233C401.447 27.5233 399.654 29.0577 399.654 31.804C399.654 39.665 414.32 37.2411 414.32 46.5031C414.32 51.8068 410.411 55.2647 404.142 55.2647C398.896 55.2647 396.135 54.1195 395.055 53.5413C394.732 51.5622 394.798 48.3043 394.865 46.1918H396.146C397.616 49.961 399.988 53.419 404.409 53.419C407.349 53.419 409.342 51.8846 409.342 48.9492C409.342 41.2772 394.876 44.157 394.743 33.9944C394.676 29.0132 398.585 25.6887 405.111 25.6887L405.088 25.6664Z" fill="white"/>
<path d="M435 51.8179C433.396 53.419 430.779 55.2647 427.505 55.2647C422.572 55.2647 420.779 52.9631 420.779 46.7588L420.846 28.3461H417.383V27.3898L417.828 27.3231C421.158 26.1112 423.719 23.9986 425.579 20.0959H426.67C426.603 21.886 426.548 23.7985 426.481 26.6782H434.488V28.3461H426.425C426.358 30.3252 426.358 32.6935 426.358 35.6956V45.28C426.358 50.517 427.828 51.7956 430.323 51.7956C432.305 51.7956 433.14 51.4176 434.421 50.7727L435 51.7956V51.8179Z" fill="white"/>
<path d="M129.758 78.5142C129.357 77.9917 128.844 77.5914 128.232 77.3134C127.619 77.0354 126.985 76.8909 126.328 76.8909C125.526 76.8909 124.802 77.0354 124.156 77.3468C123.51 77.647 122.953 78.0584 122.497 78.5809C122.04 79.1035 121.684 79.7151 121.428 80.4155C121.172 81.116 121.049 81.861 121.049 82.6616C121.049 83.4065 121.172 84.1181 121.405 84.7853C121.65 85.4524 121.996 86.0417 122.452 86.542C122.909 87.0535 123.466 87.4538 124.112 87.7429C124.769 88.032 125.504 88.1876 126.339 88.1876C127.174 88.1876 127.864 88.0208 128.488 87.6873C129.112 87.3537 129.624 86.8867 130.047 86.2863L131.673 87.5094C131.562 87.6539 131.383 87.8652 131.116 88.1431C130.849 88.4211 130.493 88.6879 130.058 88.9659C129.613 89.2439 129.089 89.4774 128.466 89.6887C127.842 89.8999 127.129 90 126.305 90C125.181 90 124.167 89.7887 123.265 89.3551C122.363 88.9215 121.595 88.3655 120.96 87.6761C120.325 86.9868 119.835 86.1973 119.501 85.3301C119.167 84.4628 119 83.5733 119 82.6727C119 81.583 119.178 80.5712 119.546 79.6372C119.902 78.7144 120.414 77.9138 121.06 77.2356C121.706 76.5573 122.486 76.0347 123.399 75.6678C124.312 75.2898 125.314 75.1119 126.406 75.1119C127.341 75.1119 128.265 75.2898 129.167 75.6567C130.069 76.0236 130.804 76.5685 131.383 77.3134L129.78 78.5365L129.758 78.5142Z" fill="white"/>
<path d="M140.793 75.4454H142.72V81.3273H150.081V75.4454H152.008V89.6108H150.081V83.1285H142.72V89.6108H140.793V75.4454Z" fill="white"/>
<path d="M162.464 75.4454H164.391V89.6108H162.464V75.4454Z" fill="white"/>
<path d="M174.859 75.4454H179.848C180.761 75.4454 181.507 75.5678 182.098 75.8124C182.688 76.057 183.144 76.3683 183.49 76.7575C183.835 77.1355 184.069 77.5691 184.202 78.0361C184.336 78.5031 184.403 78.9701 184.403 79.4038C184.403 79.8374 184.325 80.2933 184.158 80.7158C184.002 81.1383 183.768 81.5163 183.467 81.861C183.167 82.2057 182.799 82.4837 182.365 82.7171C181.93 82.9506 181.441 83.0952 180.917 83.1508L184.948 89.6108H182.543L178.935 83.3621H176.786V89.6108H174.859V75.4454ZM176.774 81.6942H179.302C179.681 81.6942 180.048 81.6609 180.416 81.6053C180.783 81.5497 181.106 81.4385 181.396 81.2717C181.686 81.116 181.908 80.8826 182.086 80.5824C182.265 80.2821 182.343 79.893 182.343 79.4149C182.343 78.9367 182.253 78.5476 182.086 78.2474C181.908 77.9472 181.686 77.7137 181.396 77.558C181.106 77.4024 180.783 77.2912 180.416 77.2244C180.048 77.1577 179.681 77.1355 179.302 77.1355H176.774V81.6942Z" fill="white"/>
<path d="M200.428 89.9777C199.347 89.9777 198.345 89.7887 197.443 89.4107C196.53 89.0327 195.75 88.5101 195.105 87.8429C194.459 87.1758 193.946 86.3864 193.579 85.4858C193.211 84.574 193.033 83.5955 193.033 82.5392C193.033 81.483 193.211 80.5045 193.579 79.5928C193.946 78.681 194.459 77.9027 195.105 77.2356C195.75 76.5685 196.53 76.0459 197.443 75.6678C198.356 75.2898 199.347 75.1008 200.428 75.1008C201.508 75.1008 202.51 75.2898 203.412 75.6678C204.325 76.0459 205.094 76.5685 205.751 77.2356C206.397 77.9027 206.909 78.6921 207.276 79.5928C207.644 80.5045 207.833 81.483 207.833 82.5392C207.833 83.5955 207.644 84.574 207.276 85.4858C206.909 86.3975 206.397 87.1758 205.751 87.8429C205.105 88.5101 204.325 89.0327 203.412 89.4107C202.499 89.7887 201.508 89.9777 200.428 89.9777ZM200.428 88.1765C201.241 88.1765 201.976 88.0208 202.633 87.7206C203.29 87.4204 203.846 87.0201 204.314 86.5087C204.782 85.9972 205.138 85.4079 205.394 84.7186C205.651 84.0292 205.773 83.3065 205.773 82.5282C205.773 81.7498 205.651 81.0271 205.394 80.3377C205.138 79.6484 204.782 79.0479 204.314 78.5476C203.846 78.0361 203.29 77.6359 202.633 77.3356C201.976 77.0354 201.241 76.8798 200.428 76.8798C199.615 76.8798 198.88 77.0243 198.223 77.3356C197.566 77.6359 197.009 78.0361 196.541 78.5476C196.073 79.0591 195.717 79.6484 195.461 80.3377C195.205 81.0271 195.082 81.7498 195.082 82.5282C195.082 83.3065 195.205 84.0292 195.461 84.7186C195.717 85.4079 196.073 86.0083 196.541 86.5087C197.009 87.0201 197.566 87.4204 198.223 87.7206C198.88 88.0208 199.615 88.1765 200.428 88.1765Z" fill="white"/>
<path d="M217.41 75.4454H222.399C223.313 75.4454 224.059 75.5678 224.649 75.8124C225.239 76.057 225.696 76.3683 226.041 76.7575C226.386 77.1355 226.62 77.5691 226.754 78.0361C226.887 78.5031 226.954 78.9701 226.954 79.4038C226.954 79.8374 226.887 80.3044 226.754 80.7714C226.62 81.2383 226.386 81.672 226.041 82.05C225.696 82.4281 225.239 82.7394 224.649 82.9951C224.059 83.2397 223.313 83.3621 222.399 83.3621H219.337V89.6108H217.41V75.4454ZM219.337 81.6942H221.865C222.243 81.6942 222.611 81.6609 222.978 81.6053C223.346 81.5497 223.669 81.4385 223.958 81.2717C224.248 81.116 224.471 80.8826 224.649 80.5824C224.827 80.2821 224.905 79.893 224.905 79.4149C224.905 78.9367 224.816 78.5476 224.649 78.2474C224.471 77.9472 224.248 77.7137 223.958 77.558C223.669 77.4024 223.346 77.2912 222.978 77.2244C222.611 77.1577 222.243 77.1355 221.865 77.1355H219.337V81.6942Z" fill="white"/>
<path d="M236.108 75.4454H241.097C242.01 75.4454 242.756 75.5678 243.346 75.8124C243.937 76.057 244.404 76.3683 244.739 76.7575C245.073 77.1466 245.318 77.5691 245.451 78.0361C245.585 78.5031 245.652 78.9701 245.652 79.4038C245.652 79.8374 245.574 80.2933 245.407 80.7158C245.251 81.1383 245.017 81.5163 244.716 81.861C244.416 82.2057 244.048 82.4837 243.614 82.7171C243.179 82.9506 242.689 83.0952 242.166 83.1508L246.197 89.6108H243.792L240.184 83.3621H238.035V89.6108H236.108V75.4454ZM238.035 81.6942H240.562C240.941 81.6942 241.309 81.6609 241.676 81.6053C242.044 81.5497 242.367 81.4385 242.656 81.2717C242.946 81.116 243.168 80.8826 243.346 80.5824C243.525 80.2821 243.603 79.893 243.603 79.4149C243.603 78.9367 243.514 78.5476 243.346 78.2474C243.168 77.9472 242.946 77.7137 242.656 77.558C242.367 77.4024 242.044 77.2912 241.676 77.2244C241.309 77.1577 240.941 77.1355 240.562 77.1355H238.035V81.6942Z" fill="white"/>
<path d="M261.376 75.4454L267.445 89.6108H265.196L263.77 86.1084H257.011L255.607 89.6108H253.358L259.616 75.4454H261.376ZM263.069 84.4406L260.418 77.9361H260.374L257.69 84.4406H263.069Z" fill="white"/>
<path d="M285.987 78.5142C285.586 77.9917 285.074 77.5914 284.461 77.3134C283.849 77.0354 283.214 76.8909 282.557 76.8909C281.755 76.8909 281.031 77.0354 280.385 77.3468C279.739 77.647 279.183 78.0584 278.726 78.5809C278.27 79.1035 277.902 79.7151 277.657 80.4155C277.401 81.116 277.278 81.861 277.278 82.6616C277.278 83.4065 277.401 84.1181 277.635 84.7853C277.88 85.4524 278.225 86.0417 278.682 86.542C279.138 87.0535 279.695 87.4538 280.341 87.7429C280.998 88.032 281.733 88.1876 282.568 88.1876C283.403 88.1876 284.094 88.0208 284.717 87.6873C285.341 87.3537 285.853 86.8867 286.276 86.2863L287.902 87.5094C287.791 87.6539 287.613 87.8652 287.345 88.1431C287.078 88.4211 286.722 88.6879 286.288 88.9659C285.842 89.2439 285.319 89.4774 284.695 89.6887C284.071 89.8999 283.359 90 282.546 90C281.421 90 280.408 89.7887 279.506 89.3551C278.604 88.9326 277.835 88.3655 277.2 87.6761C276.566 86.9868 276.076 86.1973 275.742 85.3301C275.408 84.4628 275.24 83.5733 275.24 82.6727C275.24 81.583 275.419 80.5712 275.786 79.6372C276.154 78.7033 276.655 77.9138 277.301 77.2356C277.947 76.5573 278.726 76.0347 279.639 75.6678C280.552 75.3009 281.555 75.1119 282.646 75.1119C283.581 75.1119 284.506 75.2898 285.397 75.6567C286.299 76.0125 287.034 76.5685 287.613 77.3134L286.009 78.5365L285.987 78.5142Z" fill="white"/>
<path d="M295.43 77.2467V75.4454H306.5V77.2467H301.934V89.6108H300.007V77.2467H295.43Z" fill="white"/>
<path d="M315.353 75.4454H317.28V89.6108H315.353V75.4454Z" fill="white"/>
<path d="M337.625 78.5142C337.224 77.9917 336.712 77.5914 336.1 77.3134C335.487 77.0354 334.852 76.8909 334.195 76.8909C333.394 76.8909 332.67 77.0354 332.024 77.3468C331.378 77.647 330.821 78.0584 330.365 78.5809C329.908 79.1035 329.552 79.7151 329.295 80.4155C329.039 81.116 328.917 81.861 328.917 82.6616C328.917 83.4065 329.039 84.1181 329.273 84.7853C329.518 85.4524 329.863 86.0417 330.32 86.542C330.777 87.0424 331.333 87.4538 331.979 87.7429C332.636 88.032 333.371 88.1876 334.207 88.1876C335.042 88.1876 335.732 88.0208 336.356 87.6873C336.979 87.3537 337.492 86.8867 337.915 86.2863L339.541 87.5094C339.429 87.6539 339.251 87.8652 338.984 88.1431C338.717 88.4211 338.36 88.6879 337.926 88.9659C337.481 89.2439 336.957 89.4774 336.333 89.6887C335.71 89.8999 334.997 90 334.173 90C333.048 90 332.035 89.7887 331.133 89.3551C330.231 88.9326 329.462 88.3655 328.828 87.6761C328.193 86.9868 327.714 86.1973 327.38 85.3301C327.046 84.4628 326.879 83.5733 326.879 82.6727C326.879 81.583 327.057 80.5712 327.425 79.6372C327.781 78.7144 328.293 77.9138 328.939 77.2356C329.585 76.5573 330.365 76.0347 331.278 75.6678C332.191 75.2898 333.193 75.1119 334.284 75.1119C335.22 75.1119 336.144 75.2898 337.046 75.6567C337.948 76.0125 338.683 76.5685 339.262 77.3134L337.659 78.5365L337.625 78.5142Z" fill="white"/>
</svg>
